<svg xmlns="http://www.w3.org/2000/svg" xmlns:xlink="http://www.w3.org/1999/xlink" width="133" height="30" viewBox="0 0 133 30">
  <defs>
    <linearGradient id="linear-gradient" x1="0.278" x2="1.201" y2="1.18" gradientUnits="objectBoundingBox">
      <stop offset="0" stop-color="#ff2fff"/>
      <stop offset="1" stop-color="#009dff"/>
    </linearGradient>
    <clipPath id="clip-path">
      <rect id="Rectangle_63" data-name="Rectangle 63" width="18.505" height="18.505" fill="url(#linear-gradient)"/>
    </clipPath>
  </defs>
  <g id="Group_114" data-name="Group 114" transform="translate(-98 -42)">
    <g id="Group_95" data-name="Group 95" transform="translate(98 42)">
      <text id="Fushiguro_Megumi" data-name="Fushiguro Megumi" transform="translate(63 24)" fill="#3a3a41" font-size="25" font-family="Inter-Bold, Inter" font-weight="700" letter-spacing="-0.03em" opacity="0.174"><tspan x="0" y="0" xml:space="preserve">Z    NE</tspan></text>
      <text id="Fushiguro_Megumi-2" data-name="Fushiguro Megumi" transform="translate(0 24)" fill="#3a3a41" font-size="25" font-family="Inter-Bold, Inter" font-weight="700" letter-spacing="-0.03em" opacity="0.174"><tspan x="0" y="0">CALL</tspan></text>
      <g id="Group_94" data-name="Group 94" transform="translate(79.651 5.906)">
        <g id="Group_92" data-name="Group 92" clip-path="url(#clip-path)">
          <path id="Path_90" data-name="Path 90" d="M18.5,18.5H9.252A9.252,9.252,0,1,1,18.5,9.253ZM9.252,3.29a5.962,5.962,0,1,0,0,11.924h5.962V9.253A5.969,5.969,0,0,0,9.252,3.29" fill="url(#linear-gradient)"/>
          <path id="Path_91" data-name="Path 91" d="M67.221,94.828a1.465,1.465,0,1,1-1.465-1.465,1.465,1.465,0,0,1,1.465,1.465" transform="translate(-58.733 -85.291)" fill="#3a3a41" opacity="0.273"/>
          <path id="Path_92" data-name="Path 92" d="M118.789,94.828a1.465,1.465,0,1,1-1.465-1.465,1.465,1.465,0,0,1,1.465,1.465" transform="translate(-105.842 -85.291)" fill="#3a3a41" opacity="0.273"/>
        </g>
      </g>
    </g>
  </g>
</svg>
